# xmcd CD database file
#
# Track frame offsets:
#	150
#	13482
#	30605
#	50762
#	67845
#	90520
#	107947
#	127927
#	148647
#	164120
#	182800
#	199147
#
# Disc length: 2915 seconds
#
# Revision: 1
# Processed by: cddbd v1.5.2PL0 Copyright (c) Steve Scherf et al.
# Submitted via: CDex 1.70beta2
#
DISCID=ae0b610c
DTITLE=Cathi Ogden - Out There
DYEAR=2001
DGENRE=Blues
TTITLE0=Heart Strings
TTITLE1=If I'm in the Mood
TTITLE2=Easy to Adore
TTITLE3=I Can't Last a Day
TTITLE4=It's a Feel Thing
TTITLE5=Shorter Straw
TTITLE6=Company
TTITLE7=Time Will Wait
TTITLE8=Your Love
TTITLE9=Out There
TTITLE10=Fate
TTITLE11=A Memory
EXTD=YEAR: 2001
EXTT0=
EXTT1=
EXTT2=
EXTT3=
EXTT4=
EXTT5=
EXTT6=
EXTT7=
EXTT8=
EXTT9=
EXTT10=
EXTT11=
PLAYORDER=
